<?xml version="1.0" encoding="UTF-8" standalone="no"?>
<svg
   xmlns:dc="http://purl.org/dc/elements/1.1/"
   xmlns:cc="http://creativecommons.org/ns#"
   xmlns:rdf="http://www.w3.org/1999/02/22-rdf-syntax-ns#"
   xmlns:svg="http://www.w3.org/2000/svg"
   xmlns="http://www.w3.org/2000/svg"
   xmlns:sodipodi="http://sodipodi.sourceforge.net/DTD/sodipodi-0.dtd"
   xmlns:inkscape="http://www.inkscape.org/namespaces/inkscape"
   viewBox="0.0 0.0 348.0 348.0"
   fill="none"
   version="1.1"
   id="svg26"
   sodipodi:docname="eeB gnillepS.svg"
   inkscape:version="0.92.4 (5da689c313, 2019-01-14)">
  <metadata
     id="metadata32">
    <rdf:RDF>
      <cc:Work
         rdf:about="">
        <dc:format>image/svg+xml</dc:format>
        <dc:type
           rdf:resource="http://purl.org/dc/dcmitype/StillImage" />
        <dc:title></dc:title>
      </cc:Work>
    </rdf:RDF>
  </metadata>
  <defs
     id="defs30" />
  <sodipodi:namedview
     pagecolor="#ffffff"
     bordercolor="#666666"
     borderopacity="1"
     objecttolerance="10"
     gridtolerance="10"
     guidetolerance="10"
     inkscape:pageopacity="0"
     inkscape:pageshadow="2"
     inkscape:window-width="1366"
     inkscape:window-height="705"
     id="namedview28"
     showgrid="false"
     inkscape:zoom="1.1236496"
     inkscape:cx="158.89693"
     inkscape:cy="156.33343"
     inkscape:window-x="-8"
     inkscape:window-y="-8"
     inkscape:window-maximized="1"
     inkscape:current-layer="svg26" />
  <path
     d="M5.079 5.776h336.913v337.67H5.08z"
     stroke-width="2"
     stroke="#000"
     id="path22" />
  <path
     d="m 22.734,40.554 c 0,-8.376 6.966,-15.165 15.56,-15.165 4.126,0 8.084,1.597 11.001,4.441 2.918,2.844 4.558,6.702 4.558,10.724 0,8.376 -6.966,15.165 -15.56,15.165 -8.593,0 -15.559,-6.79 -15.559,-15.165 z"
     id="path24"
     inkscape:connector-curvature="0"
     style="stroke:#000000;stroke-width:2" />
  <path
     transform="scale(-1,1)"
     style="fill:#000000;fill-opacity:1;stroke:#000000;stroke-width:2;stroke-miterlimit:4;stroke-dasharray:none;stroke-opacity:1"
     d="m -324.90436,145.99638 h 303.949373 v 36.4991 H -324.90436 Z"
     id="rect916" />
  <path
     transform="scale(-1,1)"
     style="fill:#ffffff;fill-opacity:1;stroke:#000000;stroke-width:1.59444511;stroke-miterlimit:4;stroke-dasharray:none;stroke-opacity:1"
     d="m -305.63447,219.62387 a 14.047262,14.047262 0 0 1 -14.01268,14.04722 14.047262,14.047262 0 0 1 -14.08167,-13.97805 14.047262,14.047262 0 0 1 13.94333,-14.11605 14.047262,14.047262 0 0 1 14.15034,13.90853"
     id="path974" />
  <g
     aria-label="Q"
     style="font-style:normal;font-weight:normal;font-size:21.33333397px;line-height:1.25;font-family:sans-serif;letter-spacing:0px;word-spacing:0px;fill:#000000;fill-opacity:1;stroke:none"
     id="text978"
     transform="matrix(-1,0,0,1,347.3707,0)">
    <path
       d="m 35.424806,228.86033 q -0.625,0.15625 -1.239584,0.21875 -0.604166,0.0729 -1.239583,0.0729 -1.8125,0 -2.916667,-1 -1.09375,-0.98958 -1.1875,-2.84375 -0.25,0.0417 -0.489583,0.0521 -0.229167,0.0208 -0.447917,0.0208 -1.635416,0 -2.979167,-0.54167 -1.333333,-0.54166 -2.270833,-1.57291 -0.9375,-1.03125 -1.447917,-2.53125 -0.5,-1.5 -0.5,-3.42709 0,-1.89583 0.5,-3.39583 0.5,-1.51042 1.458334,-2.58333 0.916666,-1.02084 2.270833,-1.5625 1.364584,-0.54167 2.96875,-0.54167 1.666667,0 2.989584,0.55208 1.333333,0.54167 2.260416,1.55209 0.947917,1.04166 1.447917,2.55208 0.510417,1.51042 0.510417,3.42708 0,2.84375 -1.166667,4.79167 -1.15625,1.94792 -3.114583,2.72917 0.04167,1.1875 0.5625,1.84375 0.520833,0.65625 1.895833,0.65625 0.427083,0 1.010417,-0.13542 0.59375,-0.125 0.84375,-0.22917 h 0.28125 z m -2.458334,-11.55209 q 0,-3.02083 -1.354166,-4.65625 -1.354167,-1.64583 -3.697917,-1.64583 -2.364583,0 -3.71875,1.64583 -1.34375,1.63542 -1.34375,4.65625 0,3.05209 1.375,4.67709 1.375,1.61458 3.6875,1.61458 2.3125,0 3.677083,-1.61458 1.375,-1.625 1.375,-4.67709 z"
       id="path1239"
       inkscape:connector-curvature="0" />
  </g>
  <path
     transform="scale(-1,1)"
     style="fill:#ffffff;fill-opacity:1;stroke:#000000;stroke-width:1.59444511;stroke-miterlimit:4;stroke-dasharray:none;stroke-opacity:1"
     d="m -272.91114,219.62387 a 14.047262,14.047262 0 0 1 -14.01268,14.04722 14.047262,14.047262 0 0 1 -14.08168,-13.97805 14.047262,14.047262 0 0 1 13.94333,-14.11605 14.047262,14.047262 0 0 1 14.15035,13.90853"
     id="path974-2" />
  <g
     aria-label="W"
     style="font-style:normal;font-weight:normal;font-size:21.33333397px;line-height:1.25;font-family:sans-serif;letter-spacing:0px;word-spacing:0px;fill:#000000;fill-opacity:1;stroke:none"
     id="text978-9"
     transform="matrix(-1,0,0,1,347.3707,0)">
    <path
       d="m 70.049365,210.80643 -4.03125,15.51042 h -2.322917 l -3.260416,-12.875 -3.1875,12.875 h -2.270834 l -4.104167,-15.51042 h 2.114584 l 3.260417,12.89584 3.208333,-12.89584 h 2.09375 l 3.239584,13.02084 3.239583,-13.02084 z"
       id="path1236"
       inkscape:connector-curvature="0" />
  </g>
  <path
     style="fill:#ffffff;fill-opacity:1;stroke:#000000;stroke-width:1.59444511;stroke-miterlimit:4;stroke-dasharray:none;stroke-opacity:1"
     d="m 240.8171,219.62387 a 14.047262,14.047262 0 0 0 14.01267,14.04722 14.047262,14.047262 0 0 0 14.08168,-13.97805 14.047262,14.047262 0 0 0 -13.94333,-14.11605 14.047262,14.047262 0 0 0 -14.15034,13.90853"
     id="path1004"
     inkscape:connector-curvature="0" />
  <g
     aria-label="E"
     transform="scale(-1,1)"
     style="font-style:normal;font-weight:normal;font-size:21.33333397px;line-height:1.25;font-family:sans-serif;letter-spacing:0px;word-spacing:0px;fill:#000000;fill-opacity:1;stroke:none"
     id="text1008">
    <path
       d="m -249.91416,226.31685 h -10.21875 v -15.51042 h 10.21875 v 1.83334 h -8.15625 v 4.25 h 8.15625 v 1.83333 h -8.15625 v 5.76042 h 8.15625 z"
       style=""
       id="path1215" />
  </g>
  <path
     transform="scale(-1,1)"
     style="fill:#ffffff;fill-opacity:1;stroke:#000000;stroke-width:1.59444511;stroke-miterlimit:4;stroke-dasharray:none;stroke-opacity:1"
     d="m -208.72306,219.62387 a 14.047262,14.047262 0 0 1 -14.01268,14.04722 14.047262,14.047262 0 0 1 -14.08168,-13.97805 14.047262,14.047262 0 0 1 13.94333,-14.11605 14.047262,14.047262 0 0 1 14.15035,13.90853"
     id="path1010" />
  <g
     aria-label="R"
     style="font-style:normal;font-weight:normal;font-size:21.33333397px;line-height:1.25;font-family:sans-serif;letter-spacing:0px;word-spacing:0px;fill:#000000;fill-opacity:1;stroke:none"
     id="text1014"
     transform="matrix(-1,0,0,1,347.3707,0)">
    <path
       d="m 132.16516,226.31685 h -2.67709 l -5.1875,-6.16667 h -2.90625 v 6.16667 h -2.0625 v -15.51042 h 4.34375 q 1.40625,0 2.34375,0.1875 0.9375,0.17708 1.6875,0.64583 0.84375,0.53125 1.3125,1.34376 0.47917,0.80208 0.47917,2.04166 0,1.67709 -0.84375,2.8125 -0.84375,1.125 -2.32292,1.69792 z m -4.82292,-11.14583 q 0,-0.66667 -0.23958,-1.17709 -0.22917,-0.52083 -0.77084,-0.875 -0.44791,-0.30208 -1.0625,-0.41666 -0.61458,-0.125 -1.44791,-0.125 h -2.42709 v 5.85416 h 2.08334 q 0.97916,0 1.70833,-0.16666 0.72917,-0.17709 1.23958,-0.64584 0.46875,-0.4375 0.6875,-1 0.22917,-0.57291 0.22917,-1.44791 z"
       id="path1232"
       inkscape:connector-curvature="0" />
  </g>
  <path
     transform="scale(-1,1)"
     style="fill:#ffffff;fill-opacity:1;stroke:#000000;stroke-width:1.59444511;stroke-miterlimit:4;stroke-dasharray:none;stroke-opacity:1"
     d="m -175.99973,219.62387 a 14.047262,14.047262 0 0 1 -14.01268,14.04722 14.047262,14.047262 0 0 1 -14.08168,-13.97805 14.047262,14.047262 0 0 1 13.94333,-14.11605 14.047262,14.047262 0 0 1 14.15034,13.90853"
     id="path1016" />
  <g
     aria-label="T"
     style="font-style:normal;font-weight:normal;font-size:21.33333397px;line-height:1.25;font-family:sans-serif;letter-spacing:0px;word-spacing:0px;fill:#000000;fill-opacity:1;stroke:none"
     id="text1020"
     transform="matrix(-1,0,0,1,347.3707,0)">
    <path
       d="m 164.04659,212.63977 h -5.54167 v 13.67708 h -2.0625 v -13.67708 h -5.54166 v -1.83334 h 13.14583 z"
       id="path1229"
       inkscape:connector-curvature="0" />
  </g>
  <path
     transform="scale(-1,1)"
     style="fill:#ffffff;fill-opacity:1;stroke:#000000;stroke-width:1.59444511;stroke-miterlimit:4;stroke-dasharray:none;stroke-opacity:1"
     d="m -143.27641,219.62387 a 14.047262,14.047262 0 0 1 -14.01267,14.04722 14.047262,14.047262 0 0 1 -14.08168,-13.97805 14.047262,14.047262 0 0 1 13.94333,-14.11605 14.047262,14.047262 0 0 1 14.15034,13.90853"
     id="path1022" />
  <g
     aria-label="Y"
     style="font-style:normal;font-weight:normal;font-size:21.33333397px;line-height:1.25;font-family:sans-serif;letter-spacing:0px;word-spacing:0px;fill:#000000;fill-opacity:1;stroke:none"
     id="text1026"
     transform="matrix(-1,0,0,1,347.3707,0)">
    <path
       d="m 196.81656,210.93558 -5.45833,8.70834 v 6.80208 h -2.0625 v -6.58333 l -5.47917,-8.92709 h 2.28125 l 4.23958,6.9375 4.28125,-6.9375 z"
       id="path1226"
       inkscape:connector-curvature="0" />
  </g>
  <path
     transform="scale(-1,1)"
     style="fill:#ffffff;fill-opacity:1;stroke:#000000;stroke-width:1.59444511;stroke-miterlimit:4;stroke-dasharray:none;stroke-opacity:1"
     d="m -110.55309,219.62387 a 14.047262,14.047262 0 0 1 -14.01268,14.04722 14.047262,14.047262 0 0 1 -14.08168,-13.97805 14.047262,14.047262 0 0 1 13.94333,-14.11605 14.047262,14.047262 0 0 1 14.15034,13.90853"
     id="path1028" />
  <g
     aria-label="U"
     style="font-style:normal;font-weight:normal;font-size:21.33333397px;line-height:1.25;font-family:sans-serif;letter-spacing:0px;word-spacing:0px;fill:#000000;fill-opacity:1;stroke:none"
     id="text1032"
     transform="matrix(-1,0,0,1,347.3707,0)">
    <path
       d="m 228.5496,220.08768 q 0,1.6875 -0.375,2.94792 -0.36458,1.25 -1.20833,2.08333 -0.80209,0.79167 -1.875,1.15625 -1.07292,0.36459 -2.5,0.36459 -1.45834,0 -2.54167,-0.38542 -1.08333,-0.38542 -1.82292,-1.13542 -0.84375,-0.85416 -1.21875,-2.0625 -0.36458,-1.20833 -0.36458,-2.96875 v -9.28125 h 2.0625 v 9.38542 q 0,1.26042 0.16667,1.98958 0.17708,0.72917 0.58333,1.32292 0.45833,0.67708 1.23958,1.02083 0.79167,0.34375 1.89584,0.34375 1.11458,0 1.89583,-0.33333 0.78125,-0.34375 1.25,-1.03125 0.40625,-0.59375 0.57292,-1.35417 0.17708,-0.77083 0.17708,-1.90625 v -9.4375 h 2.0625 z"
       id="path1223"
       inkscape:connector-curvature="0" />
  </g>
  <path
     transform="scale(-1,1)"
     style="fill:#ffffff;fill-opacity:1;stroke:#000000;stroke-width:1.59444511;stroke-miterlimit:4;stroke-dasharray:none;stroke-opacity:1"
     d="m -78.459063,219.62387 a 14.047262,14.047262 0 0 1 -14.012675,14.04722 14.047262,14.047262 0 0 1 -14.081682,-13.97805 14.047262,14.047262 0 0 1 13.943335,-14.11605 14.047262,14.047262 0 0 1 14.150341,13.90853"
     id="path1034" />
  <g
     aria-label="I"
     style="font-style:normal;font-weight:normal;font-size:21.33333397px;line-height:1.25;font-family:sans-serif;letter-spacing:0px;word-spacing:0px;fill:#000000;fill-opacity:1;stroke:none"
     id="text1038"
     transform="matrix(-1,0,0,1,347.3707,0)">
    <path
       d="m 258.21105,226.31685 h -6.125 v -1.58333 h 2.03125 v -12.34375 h -2.03125 v -1.58334 h 6.125 v 1.58334 h -2.03125 v 12.34375 h 2.03125 z"
       id="path1220"
       inkscape:connector-curvature="0" />
  </g>
  <path
     transform="scale(-1,1)"
     style="fill:#ffffff;fill-opacity:1;stroke:#000000;stroke-width:1.59444511;stroke-miterlimit:4;stroke-dasharray:none;stroke-opacity:1"
     d="m -46.365034,219.62387 a 14.047262,14.047262 0 0 1 -14.012675,14.04722 14.047262,14.047262 0 0 1 -14.081679,-13.97805 14.047262,14.047262 0 0 1 13.943331,-14.11605 14.047262,14.047262 0 0 1 14.150342,13.90853"
     id="path1040" />
  <g
     aria-label="O"
     style="font-style:normal;font-weight:normal;font-size:21.33333397px;line-height:1.25;font-family:sans-serif;letter-spacing:0px;word-spacing:0px;fill:#000000;fill-opacity:1;stroke:none"
     id="text1044"
     transform="matrix(-1,0,0,1,347.3707,0)">
    <path
       d="m 291.9938,212.58768 q 0.94791,1.04167 1.44791,2.55209 0.51042,1.51041 0.51042,3.42708 0,1.91667 -0.52083,3.4375 -0.51042,1.51042 -1.4375,2.52083 -0.95834,1.05209 -2.27084,1.58334 -1.30208,0.53125 -2.97916,0.53125 -1.63542,0 -2.97917,-0.54167 -1.33334,-0.54167 -2.27084,-1.57292 -0.9375,-1.03125 -1.44791,-2.53125 -0.5,-1.5 -0.5,-3.42708 0,-1.89583 0.5,-3.39583 0.5,-1.51042 1.45833,-2.58334 0.91667,-1.02083 2.27083,-1.5625 1.36459,-0.54167 2.96876,-0.54167 1.66666,0 2.98958,0.55209 1.33333,0.54166 2.26042,1.55208 z m -0.1875,5.97917 q 0,-3.02083 -1.35417,-4.65625 -1.35417,-1.64583 -3.69792,-1.64583 -2.36458,0 -3.71875,1.64583 -1.34375,1.63542 -1.34375,4.65625 0,3.05208 1.375,4.67708 1.375,1.61459 3.6875,1.61459 2.3125,0 3.67709,-1.61459 1.375,-1.625 1.375,-4.67708 z"
       id="path1217"
       inkscape:connector-curvature="0" />
  </g>
  <path
     transform="scale(-1,1)"
     style="fill:#ffffff;fill-opacity:1;stroke:#000000;stroke-width:1.59444511;stroke-miterlimit:4;stroke-dasharray:none;stroke-opacity:1"
     d="m -13.641706,219.62387 a 14.047262,14.047262 0 0 1 -14.012675,14.04722 14.047262,14.047262 0 0 1 -14.08168,-13.97805 14.047262,14.047262 0 0 1 13.943332,-14.11605 14.047262,14.047262 0 0 1 14.150341,13.90853"
     id="path1046" />
  <g
     aria-label="P"
     style="font-style:normal;font-weight:normal;font-size:21.33333397px;line-height:1.25;font-family:sans-serif;letter-spacing:0px;word-spacing:0px;fill:#000000;fill-opacity:1;stroke:none"
     id="text1050"
     transform="matrix(-1,0,0,1,347.3707,0)">
    <path
       d="m 325.48796,215.49393 q 0,1.03125 -0.36459,1.91667 -0.35416,0.875 -1,1.52083 -0.80208,0.80209 -1.89583,1.20834 -1.09375,0.39583 -2.76042,0.39583 h -2.0625 v 5.78125 h -2.0625 v -15.51042 h 4.20834 q 1.39583,0 2.36458,0.23958 0.96875,0.22917 1.71875,0.72917 0.88542,0.59375 1.36458,1.47917 0.48959,0.88542 0.48959,2.23958 z m -2.14584,0.0521 q 0,-0.80209 -0.28125,-1.39584 -0.28125,-0.59375 -0.85416,-0.96875 -0.5,-0.32291 -1.14584,-0.45833 -0.63541,-0.14583 -1.61458,-0.14583 h -2.04167 v 6.19791 h 1.73959 q 1.25,0 2.03125,-0.21875 0.78125,-0.22916 1.27083,-0.71875 0.48958,-0.5 0.6875,-1.05208 0.20833,-0.55208 0.20833,-1.23958 z"
       id="path1214"
       inkscape:connector-curvature="0" />
  </g>
  <path
     transform="scale(-1,1)"
     style="fill:#ffffff;fill-opacity:1;stroke:#000000;stroke-width:1.59444511;stroke-miterlimit:4;stroke-dasharray:none;stroke-opacity:1"
     d="m -289.27281,249.83002 a 14.047262,14.047262 0 0 1 -14.01267,14.04722 14.047262,14.047262 0 0 1 -14.08168,-13.97805 14.047262,14.047262 0 0 1 13.94333,-14.11605 14.047262,14.047262 0 0 1 14.15034,13.90853"
     id="path1052" />
  <g
     aria-label="A"
     style="font-style:normal;font-weight:normal;font-size:21.33333397px;line-height:1.25;font-family:sans-serif;letter-spacing:0px;word-spacing:0px;fill:#000000;fill-opacity:1;stroke:none"
     id="text1056"
     transform="matrix(-1,0,0,1,347.3707,0)">
    <path
       d="m 51.111668,255.89368 h -2.197917 l -1.520833,-4.32292 h -6.708334 l -1.520833,4.32292 h -2.09375 l 5.645833,-15.51042 h 2.750001 z m -4.354167,-6.09375 -2.71875,-7.61459 -2.729167,7.61459 z"
       id="path1211"
       inkscape:connector-curvature="0" />
  </g>
  <path
     transform="scale(-1,1)"
     style="fill:#ffffff;fill-opacity:1;stroke:#000000;stroke-width:1.59444511;stroke-miterlimit:4;stroke-dasharray:none;stroke-opacity:1"
     d="m -256.54948,249.83002 a 14.047262,14.047262 0 0 1 -14.01267,14.04722 14.047262,14.047262 0 0 1 -14.08168,-13.97805 14.047262,14.047262 0 0 1 13.94333,-14.11605 14.047262,14.047262 0 0 1 14.15034,13.90853"
     id="path1058" />
  <g
     aria-label="S"
     style="font-style:normal;font-weight:normal;font-size:21.33333397px;line-height:1.25;font-family:sans-serif;letter-spacing:0px;word-spacing:0px;fill:#000000;fill-opacity:1;stroke:none"
     id="text1062"
     transform="matrix(-1,0,0,1,347.3707,0)">
    <path
       d="m 82.14696,252.09593 q 0,0.90625 -0.427083,1.79166 -0.416667,0.88542 -1.177083,1.5 -0.833334,0.66667 -1.947917,1.04167 -1.104167,0.375 -2.666667,0.375 -1.677083,0 -3.020833,-0.3125 -1.333334,-0.3125 -2.71875,-0.92708 v -2.58334 h 0.145833 q 1.177083,0.97917 2.71875,1.51042 1.541667,0.53125 2.895833,0.53125 1.916667,0 2.979167,-0.71875 1.072917,-0.71875 1.072917,-1.91667 0,-1.03125 -0.510417,-1.52083 -0.5,-0.48958 -1.53125,-0.76042 -0.78125,-0.20833 -1.697917,-0.34375 -0.90625,-0.13541 -1.927083,-0.34375 -2.0625,-0.4375 -3.0625,-1.48958 -0.989583,-1.0625 -0.989583,-2.76042 0,-1.94791 1.645833,-3.1875 1.645833,-1.25 4.177083,-1.25 1.635417,0 3.000001,0.3125 1.364583,0.3125 2.416666,0.77084 v 2.4375 h -0.145833 q -0.885417,-0.75 -2.333333,-1.23959 -1.4375,-0.5 -2.947917,-0.5 -1.65625,0 -2.666667,0.6875 -1,0.6875 -1,1.77084 0,0.96875 0.5,1.52083 0.5,0.55208 1.760417,0.84375 0.666666,0.14583 1.895833,0.35417 1.229167,0.20833 2.083334,0.42708 1.729166,0.45833 2.604166,1.38542 0.875,0.92708 0.875,2.59375 z"
       id="path1208"
       inkscape:connector-curvature="0" />
  </g>
  <path
     transform="scale(-1,1)"
     style="fill:#ffffff;fill-opacity:1;stroke:#000000;stroke-width:1.59444511;stroke-miterlimit:4;stroke-dasharray:none;stroke-opacity:1"
     d="m -224.45544,249.83002 a 14.047262,14.047262 0 0 1 -14.01267,14.04722 14.047262,14.047262 0 0 1 -14.08168,-13.97805 14.047262,14.047262 0 0 1 13.94333,-14.11605 14.047262,14.047262 0 0 1 14.15034,13.90853"
     id="path1064" />
  <g
     aria-label="D"
     style="font-style:normal;font-weight:normal;font-size:21.33333397px;line-height:1.25;font-family:sans-serif;letter-spacing:0px;word-spacing:0px;fill:#000000;fill-opacity:1;stroke:none"
     id="text1068"
     transform="matrix(-1,0,0,1,347.3707,0)">
    <path
       d="m 116.07433,248.45442 q 0,2.11458 -0.92708,3.83333 -0.91667,1.71875 -2.44792,2.66667 -1.0625,0.65625 -2.375,0.94791 -1.30208,0.29167 -3.4375,0.29167 h -3.91666 v -15.51042 h 3.875 q 2.27083,0 3.60416,0.33334 1.34375,0.32291 2.27084,0.89583 1.58333,0.98958 2.46875,2.63542 0.88541,1.64583 0.88541,3.90625 z m -2.15625,-0.0312 q 0,-1.82292 -0.63541,-3.07292 -0.63542,-1.25 -1.89584,-1.96875 -0.91666,-0.52083 -1.94791,-0.71875 -1.03125,-0.20833 -2.46875,-0.20833 h -1.9375 v 11.96875 h 1.9375 q 1.48958,0 2.59375,-0.21875 1.11458,-0.21875 2.04166,-0.8125 1.15625,-0.73959 1.72917,-1.94792 0.58333,-1.20833 0.58333,-3.02083 z"
       id="path1205"
       inkscape:connector-curvature="0" />
  </g>
  <path
     transform="scale(-1,1)"
     style="fill:#ffffff;fill-opacity:1;stroke:#000000;stroke-width:1.59444511;stroke-miterlimit:4;stroke-dasharray:none;stroke-opacity:1"
     d="m -192.3614,249.83002 a 14.047262,14.047262 0 0 1 -14.01267,14.04722 14.047262,14.047262 0 0 1 -14.08168,-13.97805 14.047262,14.047262 0 0 1 13.94333,-14.11605 14.047262,14.047262 0 0 1 14.15034,13.90853"
     id="path1070" />
  <g
     aria-label="F"
     style="font-style:normal;font-weight:normal;font-size:21.33333397px;line-height:1.25;font-family:sans-serif;letter-spacing:0px;word-spacing:0px;fill:#000000;fill-opacity:1;stroke:none"
     id="text1074"
     transform="matrix(-1,0,0,1,347.3707,0)">
    <path
       d="m 145.59974,242.84593 h -7.84375 v 4.375 h 6.73958 v 1.83333 h -6.73958 v 7.46875 h -2.0625 v -15.51042 h 9.90625 z"
       id="path1202"
       inkscape:connector-curvature="0" />
  </g>
  <path
     transform="scale(-1,1)"
     style="fill:#ffffff;fill-opacity:1;stroke:#000000;stroke-width:1.59444511;stroke-miterlimit:4;stroke-dasharray:none;stroke-opacity:1"
     d="m -159.63807,249.83002 a 14.047262,14.047262 0 0 1 -14.01268,14.04722 14.047262,14.047262 0 0 1 -14.08168,-13.97805 14.047262,14.047262 0 0 1 13.94334,-14.11605 14.047262,14.047262 0 0 1 14.15034,13.90853"
     id="path1076" />
  <g
     aria-label="G"
     style="font-style:normal;font-weight:normal;font-size:21.33333397px;line-height:1.25;font-family:sans-serif;letter-spacing:0px;word-spacing:0px;fill:#000000;fill-opacity:1;stroke:none"
     id="text1080"
     transform="matrix(-1,0,0,1,347.3707,0)">
    <path
       d="m 179.76609,255.37718 q -1.27084,0.58333 -2.78125,1.02083 -1.5,0.42708 -2.90625,0.42708 -1.8125,0 -3.32292,-0.5 -1.51042,-0.5 -2.57292,-1.5 -1.07291,-1.01041 -1.65625,-2.52083 -0.58333,-1.52083 -0.58333,-3.55208 0,-3.71875 2.16667,-5.86459 2.17708,-2.15625 5.96875,-2.15625 1.32291,0 2.69791,0.32292 1.38542,0.3125 2.97917,1.07292 v 2.44791 h -0.1875 q -0.32292,-0.25 -0.9375,-0.65625 -0.61458,-0.40625 -1.20833,-0.67708 -0.71875,-0.32292 -1.63542,-0.53125 -0.90625,-0.21875 -2.0625,-0.21875 -2.60417,0 -4.125,1.67708 -1.51042,1.66667 -1.51042,4.52084 0,3.01041 1.58334,4.6875 1.58333,1.66666 4.3125,1.66666 1,0 1.98958,-0.19791 1,-0.19792 1.75,-0.51042 v -3.80208 h -4.15625 v -1.8125 h 6.19792 z"
       id="path1199"
       inkscape:connector-curvature="0" />
  </g>
  <path
     transform="scale(-1,1)"
     style="fill:#ffffff;fill-opacity:1;stroke:#000000;stroke-width:1.59444511;stroke-miterlimit:4;stroke-dasharray:none;stroke-opacity:1"
     d="m -126.91474,249.83002 a 14.047262,14.047262 0 0 1 -14.01268,14.04722 14.047262,14.047262 0 0 1 -14.08168,-13.97805 14.047262,14.047262 0 0 1 13.94333,-14.11605 14.047262,14.047262 0 0 1 14.15035,13.90853"
     id="path1082" />
  <g
     aria-label="H"
     style="font-style:normal;font-weight:normal;font-size:21.33333397px;line-height:1.25;font-family:sans-serif;letter-spacing:0px;word-spacing:0px;fill:#000000;fill-opacity:1;stroke:none"
     id="text1086"
     transform="matrix(-1,0,0,1,347.3707,0)">
    <path
       d="m 212.17576,256.65216 h -2.0625 v -7.59375 h -7.73958 v 7.59375 h -2.0625 v -15.51042 h 2.0625 v 6.08334 h 7.73958 v -6.08334 h 2.0625 z"
       id="path1196"
       inkscape:connector-curvature="0" />
  </g>
  <path
     transform="scale(-1,1)"
     style="fill:#ffffff;fill-opacity:1;stroke:#000000;stroke-width:1.59444511;stroke-miterlimit:4;stroke-dasharray:none;stroke-opacity:1"
     d="m -94.191439,249.83002 a 14.047262,14.047262 0 0 1 -14.012671,14.04722 14.047262,14.047262 0 0 1 -14.08168,-13.97805 14.047262,14.047262 0 0 1 13.94333,-14.11605 14.047262,14.047262 0 0 1 14.15034,13.90853"
     id="path1088" />
  <g
     aria-label="J"
     style="font-style:normal;font-weight:normal;font-size:21.33333397px;line-height:1.25;font-family:sans-serif;letter-spacing:0px;word-spacing:0px;fill:#000000;fill-opacity:1;stroke:none"
     id="text1092"
     transform="matrix(-1,0,0,1,347.3707,0)">
    <path
       d="m 242.06815,252.49176 q 0,2.04167 -1.25,3.14583 -1.23958,1.10417 -3.33333,1.10417 -0.5,0 -1.33334,-0.0937 -0.83333,-0.0833 -1.39583,-0.20833 v -1.92709 h 0.11458 q 0.42709,0.14584 1.05209,0.30209 0.625,0.15625 1.28125,0.15625 0.95833,0 1.52083,-0.21875 0.57292,-0.21875 0.84375,-0.625 0.28125,-0.41667 0.35417,-1.02084 0.0833,-0.60416 0.0833,-1.39583 v -9.05208 h -3.28125 v -1.64584 h 5.34375 z"
       id="path1193"
       inkscape:connector-curvature="0" />
  </g>
  <path
     transform="scale(-1,1)"
     style="fill:#ffffff;fill-opacity:1;stroke:#000000;stroke-width:1.59444511;stroke-miterlimit:4;stroke-dasharray:none;stroke-opacity:1"
     d="m -62.097399,249.83002 a 14.047262,14.047262 0 0 1 -14.012675,14.04722 14.047262,14.047262 0 0 1 -14.081679,-13.97805 14.047262,14.047262 0 0 1 13.943331,-14.11605 14.047262,14.047262 0 0 1 14.150342,13.90853"
     id="path1094" />
  <g
     aria-label="K"
     style="font-style:normal;font-weight:normal;font-size:21.33333397px;line-height:1.25;font-family:sans-serif;letter-spacing:0px;word-spacing:0px;fill:#000000;fill-opacity:1;stroke:none"
     id="text1098"
     transform="matrix(-1,0,0,1,347.3707,0)">
    <path
       d="m 277.79696,256.75201 h -2.67709 l -6.13541,-6.90625 -1.54167,1.64584 v 5.26041 h -2.0625 V 241.2416 h 2.0625 v 8.09375 l 7.53125,-8.09375 h 2.5 l -6.92708,7.29166 z"
       id="path1190"
       inkscape:connector-curvature="0" />
  </g>
  <path
     transform="scale(-1,1)"
     style="fill:#ffffff;fill-opacity:1;stroke:#000000;stroke-width:1.59444511;stroke-miterlimit:4;stroke-dasharray:none;stroke-opacity:1"
     d="m -30.00337,249.83002 a 14.047262,14.047262 0 0 1 -14.012675,14.04722 14.047262,14.047262 0 0 1 -14.081679,-13.97805 14.047262,14.047262 0 0 1 13.943331,-14.11605 14.047262,14.047262 0 0 1 14.150341,13.90853"
     id="path1100" />
  <g
     aria-label="L"
     style="font-style:normal;font-weight:normal;font-size:21.33333397px;line-height:1.25;font-family:sans-serif;letter-spacing:0px;word-spacing:0px;fill:#000000;fill-opacity:1;stroke:none"
     id="text1104"
     transform="matrix(-1,0,0,1,347.3707,0)">
    <path
       d="m 309.12264,256.52301 h -9.8125 v -15.51042 h 2.0625 v 13.67709 h 7.75 z"
       id="path1187"
       inkscape:connector-curvature="0" />
  </g>
  <path
     transform="scale(-1,1)"
     style="fill:#ffffff;fill-opacity:1;stroke:#000000;stroke-width:1.59444511;stroke-miterlimit:4;stroke-dasharray:none;stroke-opacity:1"
     d="m -240.84658,279.16553 a 14.047262,14.047262 0 0 1 -14.01268,14.04722 14.047262,14.047262 0 0 1 -14.08168,-13.97805 14.047262,14.047262 0 0 1 13.94333,-14.11605 14.047262,14.047262 0 0 1 14.15035,13.90853"
     id="path1106" />
  <g
     aria-label="Z"
     style="font-style:normal;font-weight:normal;font-size:21.33333397px;line-height:1.25;font-family:sans-serif;letter-spacing:0px;word-spacing:0px;fill:#000000;fill-opacity:1;stroke:none"
     id="text1110"
     transform="matrix(-1,0,0,1,314.70633,0)">
    <path
       d="M 65.348392,285.85849 H 53.244225 v -1.91667 l 9.510417,-11.76041 h -9.156251 v -1.83334 h 11.520834 v 1.86459 l -9.604167,11.8125 h 9.833334 z"
       id="path1184"
       inkscape:connector-curvature="0" />
  </g>
  <path
     transform="scale(-1,1)"
     style="fill:#ffffff;fill-opacity:1;stroke:#000000;stroke-width:1.59444511;stroke-miterlimit:4;stroke-dasharray:none;stroke-opacity:1"
     d="m -208.12325,279.16553 a 14.047262,14.047262 0 0 1 -14.01268,14.04722 14.047262,14.047262 0 0 1 -14.08168,-13.97805 14.047262,14.047262 0 0 1 13.94333,-14.11605 14.047262,14.047262 0 0 1 14.15034,13.90853"
     id="path1112" />
  <g
     aria-label="X"
     style="font-style:normal;font-weight:normal;font-size:21.33333397px;line-height:1.25;font-family:sans-serif;letter-spacing:0px;word-spacing:0px;fill:#000000;fill-opacity:1;stroke:none"
     id="text1116"
     transform="matrix(-1,0,0,1,314.70633,0)">
    <path
       d="m 99.100612,270.3481 -5.354167,7.66667 5.34375,7.84375 h -2.385417 l -4.229166,-6.38542 -4.333334,6.38542 h -2.25 l 5.40625,-7.75 -5.28125,-7.76042 h 2.375 l 4.177084,6.30209 4.270833,-6.30209 z"
       id="path1181"
       inkscape:connector-curvature="0" />
  </g>
  <path
     transform="scale(-1,1)"
     style="fill:#ffffff;fill-opacity:1;stroke:#000000;stroke-width:1.59444511;stroke-miterlimit:4;stroke-dasharray:none;stroke-opacity:1"
     d="m -176.02923,279.16553 a 14.047262,14.047262 0 0 1 -14.01268,14.04722 14.047262,14.047262 0 0 1 -14.08167,-13.97805 14.047262,14.047262 0 0 1 13.94333,-14.11605 14.047262,14.047262 0 0 1 14.15034,13.90853"
     id="path1118" />
  <g
     aria-label="C"
     style="font-style:normal;font-weight:normal;font-size:21.33333397px;line-height:1.25;font-family:sans-serif;letter-spacing:0px;word-spacing:0px;fill:#000000;fill-opacity:1;stroke:none"
     id="text1122"
     transform="matrix(-1,0,0,1,314.70633,0)">
    <path
       d="m 130.08187,284.73352 q -0.57292,0.25 -1.04167,0.46875 -0.45833,0.21875 -1.20833,0.45833 -0.63542,0.19792 -1.38542,0.33334 -0.73958,0.14583 -1.63541,0.14583 -1.6875,0 -3.07292,-0.46875 -1.375,-0.47917 -2.39583,-1.48958 -1,-0.98959 -1.5625,-2.51042 -0.5625,-1.53125 -0.5625,-3.55208 0,-1.91667 0.54166,-3.42709 0.54167,-1.51041 1.5625,-2.55208 0.98959,-1.01042 2.38542,-1.54167 1.40625,-0.53125 3.11458,-0.53125 1.25,0 2.48959,0.30209 1.25,0.30208 2.77083,1.0625 v 2.44791 h -0.15625 q -1.28125,-1.07291 -2.54167,-1.5625 -1.26041,-0.48958 -2.69791,-0.48958 -1.17709,0 -2.125,0.38542 -0.9375,0.375 -1.67709,1.17708 -0.71875,0.78125 -1.125,1.97917 -0.39583,1.1875 -0.39583,2.75 0,1.63541 0.4375,2.8125 0.44792,1.17708 1.14583,1.91666 0.72917,0.77084 1.69792,1.14584 0.97917,0.36458 2.0625,0.36458 1.48958,0 2.79167,-0.51042 1.30208,-0.51041 2.4375,-1.53125 h 0.14583 z"
       id="path1178"
       inkscape:connector-curvature="0" />
  </g>
  <path
     transform="scale(-1,1)"
     style="fill:#ffffff;fill-opacity:1;stroke:#000000;stroke-width:1.59444511;stroke-miterlimit:4;stroke-dasharray:none;stroke-opacity:1"
     d="m -143.93519,279.16553 a 14.047262,14.047262 0 0 1 -14.01268,14.04722 14.047262,14.047262 0 0 1 -14.08167,-13.97805 14.047262,14.047262 0 0 1 13.94333,-14.11605 14.047262,14.047262 0 0 1 14.15034,13.90853"
     id="path1124" />
  <g
     aria-label="V"
     style="font-style:normal;font-weight:normal;font-size:21.33333397px;line-height:1.25;font-family:sans-serif;letter-spacing:0px;word-spacing:0px;fill:#000000;fill-opacity:1;stroke:none"
     id="text1128"
     transform="matrix(-1,0,0,1,314.70633,0)">
    <path
       d="m 163.68449,270.3481 -5.64583,15.51042 h -2.75 l -5.64583,-15.51042 h 2.20833 l 4.86458,13.64584 4.86459,-13.64584 z"
       id="path1175"
       inkscape:connector-curvature="0" />
  </g>
  <path
     transform="scale(-1,1)"
     style="fill:#ffffff;fill-opacity:1;stroke:#000000;stroke-width:1.59444511;stroke-miterlimit:4;stroke-dasharray:none;stroke-opacity:1"
     d="m -111.21185,279.16553 a 14.047262,14.047262 0 0 1 -14.01268,14.04722 14.047262,14.047262 0 0 1 -14.08168,-13.97805 14.047262,14.047262 0 0 1 13.94333,-14.11605 14.047262,14.047262 0 0 1 14.15034,13.90853"
     id="path1130" />
  <g
     aria-label="B"
     style="font-style:normal;font-weight:normal;font-size:21.33333397px;line-height:1.25;font-family:sans-serif;letter-spacing:0px;word-spacing:0px;fill:#000000;fill-opacity:1;stroke:none"
     id="text1134"
     transform="matrix(-1,0,0,1,314.70633,0)">
    <path
       d="m 195.98792,281.08769 q 0,1.15625 -0.4375,2.04166 -0.4375,0.88542 -1.17709,1.45834 -0.875,0.6875 -1.92708,0.97916 -1.04167,0.29167 -2.65625,0.29167 h -5.5 V 270.3481 h 4.59375 q 1.69792,0 2.54167,0.125 0.84375,0.125 1.61458,0.52084 0.85417,0.44791 1.23958,1.15625 0.38542,0.69791 0.38542,1.67708 0,1.10417 -0.5625,1.88542 -0.5625,0.77083 -1.5,1.23958 v 0.0833 q 1.57292,0.32292 2.47917,1.38542 0.90625,1.05208 0.90625,2.66667 z m -3.46875,-6.98959 q 0,-0.5625 -0.1875,-0.94791 -0.1875,-0.38542 -0.60417,-0.625 -0.48958,-0.28125 -1.1875,-0.34375 -0.69792,-0.0729 -1.72917,-0.0729 h -2.45833 v 4.47917 h 2.66667 q 0.96875,0 1.54166,-0.0937 0.57292,-0.10417 1.0625,-0.41667 0.48959,-0.3125 0.6875,-0.80208 0.20834,-0.5 0.20834,-1.17709 z m 1.32291,7.07292 q 0,-0.9375 -0.28125,-1.48958 -0.28125,-0.55209 -1.02083,-0.9375 -0.5,-0.26042 -1.21875,-0.33334 -0.70833,-0.0833 -1.72917,-0.0833 h -3.23958 v 5.77083 h 2.72917 q 1.35416,0 2.21875,-0.13541 0.86458,-0.14584 1.41666,-0.52084 0.58334,-0.40625 0.85417,-0.92708 0.27083,-0.52083 0.27083,-1.34375 z"
       id="path1172"
       inkscape:connector-curvature="0" />
  </g>
  <path
     transform="scale(-1,1)"
     style="fill:#ffffff;fill-opacity:1;stroke:#000000;stroke-width:1.59444511;stroke-miterlimit:4;stroke-dasharray:none;stroke-opacity:1"
     d="m -78.488535,279.16553 a 14.047262,14.047262 0 0 1 -14.012675,14.04722 14.047262,14.047262 0 0 1 -14.08168,-13.97805 14.047262,14.047262 0 0 1 13.943332,-14.11605 14.047262,14.047262 0 0 1 14.150342,13.90853"
     id="path1136" />
  <g
     aria-label="N"
     style="font-style:normal;font-weight:normal;font-size:21.33333397px;line-height:1.25;font-family:sans-serif;letter-spacing:0px;word-spacing:0px;fill:#000000;fill-opacity:1;stroke:none"
     id="text1140"
     transform="matrix(-1,0,0,1,314.70633,0)">
    <path
       d="m 227.90635,285.98767 h -2.55208 l -7.35417,-13.875 v 13.875 h -1.92708 v -15.51042 h 3.19792 l 6.70833,12.66667 v -12.66667 h 1.92708 z"
       id="path1169"
       inkscape:connector-curvature="0" />
  </g>
  <path
     transform="scale(-1,1)"
     style="fill:#ffffff;fill-opacity:1;stroke:#000000;stroke-width:1.59444511;stroke-miterlimit:4;stroke-dasharray:none;stroke-opacity:1"
     d="m -45.765223,279.16553 a 14.047262,14.047262 0 0 1 -14.012675,14.04722 14.047262,14.047262 0 0 1 -14.081679,-13.97805 14.047262,14.047262 0 0 1 13.943332,-14.11605 14.047262,14.047262 0 0 1 14.150341,13.90853"
     id="path1142" />
  <g
     aria-label="M"
     style="font-style:normal;font-weight:normal;font-size:21.33333397px;line-height:1.25;font-family:sans-serif;letter-spacing:0px;word-spacing:0px;fill:#000000;fill-opacity:1;stroke:none"
     id="text1146"
     transform="matrix(-1,0,0,1,314.70633,0)">
    <path
       d="m 262.17922,285.85852 h -2.0625 v -13.36458 l -4.3125,9.09375 h -1.22917 l -4.28125,-9.09375 v 13.36458 h -1.92708 V 270.3481 h 2.8125 l 4.13542,8.63542 4,-8.63542 h 2.86458 z"
       id="path1166"
       inkscape:connector-curvature="0" />
  </g>
  <path
     transform="scale(-1,1)"
     style="fill:#000000;fill-opacity:1;stroke:#000000;stroke-width:0.98291266;stroke-miterlimit:4;stroke-dasharray:none;stroke-opacity:1"
     d="m -93.477722,85.10643 h 73.412689 v 36.4991 h -73.412689 z"
     id="rect1041" />
  <g
     aria-label="-:--"
     style="font-style:normal;font-variant:normal;font-weight:normal;font-stretch:normal;font-size:48px;line-height:1.25;font-family:'Gill Sans Nova';-inkscape-font-specification:'Gill Sans Nova';text-align:start;letter-spacing:0px;word-spacing:0px;text-anchor:start;fill:#ffffff;fill-opacity:1;stroke:none"
     id="text1045">
    <path
       d="m 30.18,105.36782 v -4.57031 h 11.671875 v 4.57031 z"
       style=""
       id="path1179" />
    <path
       d="m 52.21125,94.610008 q 0,1.195313 -0.867187,2.0625 -0.84375,0.867188 -2.0625,0.867188 -1.148438,0 -2.015625,-0.84375 -0.84375,-0.84375 -0.84375,-2.039063 0,-1.289062 0.84375,-2.109375 0.867187,-0.820312 2.015625,-0.820312 1.171875,0 2.039062,0.84375 0.890625,0.84375 0.890625,2.039062 z m 0,16.804692 q 0,1.19531 -0.867187,2.0625 -0.84375,0.86718 -2.0625,0.86718 -1.148438,0 -2.015625,-0.84375 -0.84375,-0.84375 -0.84375,-2.03906 0,-1.3125 0.84375,-2.10937 0.867187,-0.82032 2.015625,-0.82032 1.171875,0 2.039062,0.84375 0.890625,0.82032 0.890625,2.03907 z"
       style=""
       id="path1182" />
    <path
       d="m 56.71125,105.36782 v -4.57031 h 11.671875 v 4.57031 z"
       style=""
       id="path1185" />
    <path
       d="m 72.27375,105.36782 v -4.57031 h 11.671875 v 4.57031 z"
       style=""
       id="path1188" />
  </g>
  <path
     style="opacity:1;fill:#ffffff;fill-opacity:1;stroke:#000000;stroke-width:2.26771665;stroke-miterlimit:4;stroke-dasharray:none;stroke-dashoffset:0;stroke-opacity:1"
     d="m 114.80447,80.122894 h 54.28738 v 45.387816 h -54.28738 z"
     id="rect1047" />
  <path
     style="opacity:1;fill:#ffffff;fill-opacity:1;stroke:#000000;stroke-width:2.26771665;stroke-miterlimit:4;stroke-dasharray:none;stroke-dashoffset:0;stroke-opacity:1"
     d="m 186.80447,80.122894 h 54.28739 v 45.387816 h -54.28739 z"
     id="rect1049" />
  <path
     style="opacity:1;fill:#ffffff;fill-opacity:1;stroke:#000000;stroke-width:2.5;stroke-miterlimit:4;stroke-dasharray:none;stroke-dashoffset:0;stroke-opacity:1"
     d="M 114.94003,20.122894 H 240.35725 V 65.510708 H 114.94003 Z"
     id="rect1051" />
  <path
     style="opacity:1;fill:#ffffff;fill-opacity:1;stroke:#000000;stroke-width:2.5;stroke-miterlimit:4;stroke-dasharray:none;stroke-dashoffset:0;stroke-opacity:1"
     d="m 258.08755,27.615421 h 65.85683 v 91.665589 h -65.85683 z"
     id="rect1053" />
  <path
     style="opacity:1;fill:#ffffff;fill-opacity:1;stroke:#000000;stroke-width:2.5;stroke-miterlimit:4;stroke-dasharray:none;stroke-dashoffset:0;stroke-opacity:1"
     d="m 267.87708,27.615417 a 9.789525,9.789525 0 0 1 -9.78953,9.789526 9.789525,9.789525 0 0 1 -9.78952,-9.789526 9.789525,9.789525 0 0 1 9.78952,-9.789525 9.789525,9.789525 0 0 1 9.78953,9.789525 z"
     id="path1055" />
  <path
     style="opacity:1;fill:#ffffff;fill-opacity:1;stroke:#000000;stroke-width:2.5;stroke-miterlimit:4;stroke-dasharray:none;stroke-dashoffset:0;stroke-opacity:1"
     d="m 267.87708,119.28101 a 9.789525,9.789525 0 0 1 -9.78953,9.78953 9.789525,9.789525 0 0 1 -9.78952,-9.78953 9.789525,9.789525 0 0 1 9.78952,-9.78952 9.789525,9.789525 0 0 1 9.78953,9.78952 z"
     id="circle1059" />
  <path
     style="opacity:1;fill:#000000;fill-opacity:1;stroke:#000000;stroke-width:1.39153647;stroke-miterlimit:4;stroke-dasharray:none;stroke-dashoffset:0;stroke-opacity:1"
     d="m 281.54177,34.720654 a 5.4489923,5.4489923 0 0 1 -5.449,5.448992 5.4489923,5.4489923 0 0 1 -5.44899,-5.448992 5.4489923,5.4489923 0 0 1 5.44899,-5.448993 5.4489923,5.4489923 0 0 1 5.449,5.448993 z"
     id="circle1065" />
  <path
     style="opacity:1;fill:#000000;fill-opacity:1;stroke:#000000;stroke-width:1.39153647;stroke-miterlimit:4;stroke-dasharray:none;stroke-dashoffset:0;stroke-opacity:1"
     d="m 271.54177,44.720654 a 5.4489923,5.4489923 0 0 1 -5.449,5.448992 5.4489923,5.4489923 0 0 1 -5.44899,-5.448992 5.4489923,5.4489923 0 0 1 5.44899,-5.448993 5.4489923,5.4489923 0 0 1 5.449,5.448993 z"
     id="circle1067" />
  <path
     style="opacity:1;fill:#000000;fill-opacity:1;stroke:#000000;stroke-width:1.39153647;stroke-miterlimit:4;stroke-dasharray:none;stroke-dashoffset:0;stroke-opacity:1"
     d="m 291.54177,44.720654 a 5.4489923,5.4489923 0 0 1 -5.449,5.448992 5.4489923,5.4489923 0 0 1 -5.44899,-5.448992 5.4489923,5.4489923 0 0 1 5.44899,-5.448993 5.4489923,5.4489923 0 0 1 5.449,5.448993 z"
     id="circle1069" />
  <path
     style="opacity:1;fill:#000000;fill-opacity:1;stroke:#000000;stroke-width:1.39153647;stroke-miterlimit:4;stroke-dasharray:none;stroke-dashoffset:0;stroke-opacity:1"
     d="m 311.54177,44.720654 a 5.4489923,5.4489923 0 0 1 -5.449,5.448992 5.4489923,5.4489923 0 0 1 -5.44899,-5.448992 5.4489923,5.4489923 0 0 1 5.44899,-5.448993 5.4489923,5.4489923 0 0 1 5.449,5.448993 z"
     id="circle1071" />
  <path
     style="opacity:1;fill:#000000;fill-opacity:1;stroke:#000000;stroke-width:1.39153647;stroke-miterlimit:4;stroke-dasharray:none;stroke-dashoffset:0;stroke-opacity:1"
     d="m 311.54177,64.720657 a 5.4489923,5.4489923 0 0 1 -5.449,5.448993 5.4489923,5.4489923 0 0 1 -5.44899,-5.448993 5.4489923,5.4489923 0 0 1 5.44899,-5.448992 5.4489923,5.4489923 0 0 1 5.449,5.448992 z"
     id="circle1073" />
  <path
     style="opacity:1;fill:#000000;fill-opacity:1;stroke:#000000;stroke-width:1.39153647;stroke-miterlimit:4;stroke-dasharray:none;stroke-dashoffset:0;stroke-opacity:1"
     d="m 291.54177,64.720657 a 5.4489923,5.4489923 0 0 1 -5.449,5.448993 5.4489923,5.4489923 0 0 1 -5.44899,-5.448993 5.4489923,5.4489923 0 0 1 5.44899,-5.448992 5.4489923,5.4489923 0 0 1 5.449,5.448992 z"
     id="circle1075" />
  <path
     style="opacity:1;fill:#000000;fill-opacity:1;stroke:#000000;stroke-width:1.39153647;stroke-miterlimit:4;stroke-dasharray:none;stroke-dashoffset:0;stroke-opacity:1"
     d="m 271.54177,64.720657 a 5.4489923,5.4489923 0 0 1 -5.449,5.448993 5.4489923,5.4489923 0 0 1 -5.44899,-5.448993 5.4489923,5.4489923 0 0 1 5.44899,-5.448992 5.4489923,5.4489923 0 0 1 5.449,5.448992 z"
     id="circle1077" />
  <path
     style="opacity:1;fill:#000000;fill-opacity:1;stroke:#000000;stroke-width:1.39153647;stroke-miterlimit:4;stroke-dasharray:none;stroke-dashoffset:0;stroke-opacity:1"
     d="m 271.54177,84.720657 a 5.4489923,5.4489923 0 0 1 -5.449,5.448993 5.4489923,5.4489923 0 0 1 -5.44899,-5.448993 5.4489923,5.4489923 0 0 1 5.44899,-5.448992 5.4489923,5.4489923 0 0 1 5.449,5.448992 z"
     id="circle1079" />
  <path
     style="opacity:1;fill:#000000;fill-opacity:1;stroke:#000000;stroke-width:1.39153647;stroke-miterlimit:4;stroke-dasharray:none;stroke-dashoffset:0;stroke-opacity:1"
     d="m 291.54177,84.720657 a 5.4489923,5.4489923 0 0 1 -5.449,5.448993 5.4489923,5.4489923 0 0 1 -5.44899,-5.448993 5.4489923,5.4489923 0 0 1 5.44899,-5.448992 5.4489923,5.4489923 0 0 1 5.449,5.448992 z"
     id="circle1081" />
  <path
     style="opacity:1;fill:#000000;fill-opacity:1;stroke:#000000;stroke-width:1.39153647;stroke-miterlimit:4;stroke-dasharray:none;stroke-dashoffset:0;stroke-opacity:1"
     d="m 311.54177,84.720657 a 5.4489923,5.4489923 0 0 1 -5.449,5.448993 5.4489923,5.4489923 0 0 1 -5.44899,-5.448993 5.4489923,5.4489923 0 0 1 5.44899,-5.448992 5.4489923,5.4489923 0 0 1 5.449,5.448992 z"
     id="circle1083" />
  <path
     style="opacity:1;fill:#000000;fill-opacity:1;stroke:#000000;stroke-width:1.39153647;stroke-miterlimit:4;stroke-dasharray:none;stroke-dashoffset:0;stroke-opacity:1"
     d="m 311.54177,104.72066 a 5.4489923,5.4489923 0 0 1 -5.449,5.44899 5.4489923,5.4489923 0 0 1 -5.44899,-5.44899 5.4489923,5.4489923 0 0 1 5.44899,-5.448995 5.4489923,5.4489923 0 0 1 5.449,5.448995 z"
     id="circle1085" />
  <path
     style="opacity:1;fill:#000000;fill-opacity:1;stroke:#000000;stroke-width:1.39153647;stroke-miterlimit:4;stroke-dasharray:none;stroke-dashoffset:0;stroke-opacity:1"
     d="m 291.54177,104.72066 a 5.4489923,5.4489923 0 0 1 -5.449,5.44899 5.4489923,5.4489923 0 0 1 -5.44899,-5.44899 5.4489923,5.4489923 0 0 1 5.44899,-5.448995 5.4489923,5.4489923 0 0 1 5.449,5.448995 z"
     id="circle1087" />
  <path
     style="opacity:1;fill:#000000;fill-opacity:1;stroke:#000000;stroke-width:1.39153647;stroke-miterlimit:4;stroke-dasharray:none;stroke-dashoffset:0;stroke-opacity:1"
     d="m 271.54177,104.72066 a 5.4489923,5.4489923 0 0 1 -5.449,5.44899 5.4489923,5.4489923 0 0 1 -5.44899,-5.44899 5.4489923,5.4489923 0 0 1 5.44899,-5.448995 5.4489923,5.4489923 0 0 1 5.449,5.448995 z"
     id="circle1089" />
  <path
     style="opacity:1;fill:#000000;fill-opacity:1;stroke:#000000;stroke-width:1.39153647;stroke-miterlimit:4;stroke-dasharray:none;stroke-dashoffset:0;stroke-opacity:1"
     d="m 301.54177,34.720654 a 5.4489923,5.4489923 0 0 1 -5.449,5.448992 5.4489923,5.4489923 0 0 1 -5.44899,-5.448992 5.4489923,5.4489923 0 0 1 5.44899,-5.448993 5.4489923,5.4489923 0 0 1 5.449,5.448993 z"
     id="circle1091" />
  <path
     style="opacity:1;fill:#000000;fill-opacity:1;stroke:#000000;stroke-width:1.39153647;stroke-miterlimit:4;stroke-dasharray:none;stroke-dashoffset:0;stroke-opacity:1"
     d="m 321.54177,34.720654 a 5.4489923,5.4489923 0 0 1 -5.449,5.448992 5.4489923,5.4489923 0 0 1 -5.44899,-5.448992 5.4489923,5.4489923 0 0 1 5.44899,-5.448993 5.4489923,5.4489923 0 0 1 5.449,5.448993 z"
     id="circle1093" />
  <path
     style="opacity:1;fill:#ffffff;fill-opacity:1;stroke:#000000;stroke-width:2.5;stroke-miterlimit:4;stroke-dasharray:none;stroke-dashoffset:0;stroke-opacity:1"
     d="m 333.27704,27.281013 a 9.789525,9.789525 0 0 1 -9.78952,9.789526 9.789525,9.789525 0 0 1 -9.78953,-9.789526 9.789525,9.789525 0 0 1 9.78953,-9.789525 9.789525,9.789525 0 0 1 9.78952,9.789525 z"
     id="circle1063" />
  <path
     style="opacity:1;fill:#000000;fill-opacity:1;stroke:#000000;stroke-width:1.39153647;stroke-miterlimit:4;stroke-dasharray:none;stroke-dashoffset:0;stroke-opacity:1"
     d="m 301.54177,54.720654 a 5.4489923,5.4489923 0 0 1 -5.449,5.448992 5.4489923,5.4489923 0 0 1 -5.44899,-5.448992 5.4489923,5.4489923 0 0 1 5.44899,-5.448993 5.4489923,5.4489923 0 0 1 5.449,5.448993 z"
     id="circle1095" />
  <path
     style="opacity:1;fill:#000000;fill-opacity:1;stroke:#000000;stroke-width:1.39153647;stroke-miterlimit:4;stroke-dasharray:none;stroke-dashoffset:0;stroke-opacity:1"
     d="m 281.54177,54.720654 a 5.4489923,5.4489923 0 0 1 -5.449,5.448992 5.4489923,5.4489923 0 0 1 -5.44899,-5.448992 5.4489923,5.4489923 0 0 1 5.44899,-5.448993 5.4489923,5.4489923 0 0 1 5.449,5.448993 z"
     id="circle1097" />
  <path
     style="opacity:1;fill:#000000;fill-opacity:1;stroke:#000000;stroke-width:1.39153647;stroke-miterlimit:4;stroke-dasharray:none;stroke-dashoffset:0;stroke-opacity:1"
     d="m 281.54177,74.720657 a 5.4489923,5.4489923 0 0 1 -5.449,5.448993 5.4489923,5.4489923 0 0 1 -5.44899,-5.448993 5.4489923,5.4489923 0 0 1 5.44899,-5.448992 5.4489923,5.4489923 0 0 1 5.449,5.448992 z"
     id="circle1099" />
  <path
     style="opacity:1;fill:#000000;fill-opacity:1;stroke:#000000;stroke-width:1.39153647;stroke-miterlimit:4;stroke-dasharray:none;stroke-dashoffset:0;stroke-opacity:1"
     d="m 301.54177,74.720657 a 5.4489923,5.4489923 0 0 1 -5.449,5.448993 5.4489923,5.4489923 0 0 1 -5.44899,-5.448993 5.4489923,5.4489923 0 0 1 5.44899,-5.448992 5.4489923,5.4489923 0 0 1 5.449,5.448992 z"
     id="circle1101" />
  <path
     style="opacity:1;fill:#000000;fill-opacity:1;stroke:#000000;stroke-width:1.39153647;stroke-miterlimit:4;stroke-dasharray:none;stroke-dashoffset:0;stroke-opacity:1"
     d="m 301.54177,94.720657 a 5.4489923,5.4489923 0 0 1 -5.449,5.448993 5.4489923,5.4489923 0 0 1 -5.44899,-5.448993 5.4489923,5.4489923 0 0 1 5.44899,-5.448992 5.4489923,5.4489923 0 0 1 5.449,5.448992 z"
     id="circle1103" />
  <path
     style="opacity:1;fill:#000000;fill-opacity:1;stroke:#000000;stroke-width:1.39153647;stroke-miterlimit:4;stroke-dasharray:none;stroke-dashoffset:0;stroke-opacity:1"
     d="m 281.54177,94.720657 a 5.4489923,5.4489923 0 0 1 -5.449,5.448993 5.4489923,5.4489923 0 0 1 -5.44899,-5.448993 5.4489923,5.4489923 0 0 1 5.44899,-5.448992 5.4489923,5.4489923 0 0 1 5.449,5.448992 z"
     id="circle1105" />
  <path
     style="opacity:1;fill:#000000;fill-opacity:1;stroke:#000000;stroke-width:1.39153647;stroke-miterlimit:4;stroke-dasharray:none;stroke-dashoffset:0;stroke-opacity:1"
     d="m 301.54177,114.72066 a 5.4489923,5.4489923 0 0 1 -5.449,5.44899 5.4489923,5.4489923 0 0 1 -5.44899,-5.44899 5.4489923,5.4489923 0 0 1 5.44899,-5.44899 5.4489923,5.4489923 0 0 1 5.449,5.44899 z"
     id="circle1107" />
  <path
     style="opacity:1;fill:#000000;fill-opacity:1;stroke:#000000;stroke-width:1.39153647;stroke-miterlimit:4;stroke-dasharray:none;stroke-dashoffset:0;stroke-opacity:1"
     d="m 281.54177,114.72066 a 5.4489923,5.4489923 0 0 1 -5.449,5.44899 5.4489923,5.4489923 0 0 1 -5.44899,-5.44899 5.4489923,5.4489923 0 0 1 5.44899,-5.44899 5.4489923,5.4489923 0 0 1 5.449,5.44899 z"
     id="circle1109" />
  <path
     style="opacity:1;fill:#000000;fill-opacity:1;stroke:#000000;stroke-width:1.39153647;stroke-miterlimit:4;stroke-dasharray:none;stroke-dashoffset:0;stroke-opacity:1"
     d="m 321.54177,54.720654 a 5.4489923,5.4489923 0 0 1 -5.449,5.448992 5.4489923,5.4489923 0 0 1 -5.44899,-5.448992 5.4489923,5.4489923 0 0 1 5.44899,-5.448993 5.4489923,5.4489923 0 0 1 5.449,5.448993 z"
     id="circle1111" />
  <path
     style="opacity:1;fill:#000000;fill-opacity:1;stroke:#000000;stroke-width:1.39153647;stroke-miterlimit:4;stroke-dasharray:none;stroke-dashoffset:0;stroke-opacity:1"
     d="m 321.54177,74.720657 a 5.4489923,5.4489923 0 0 1 -5.449,5.448993 5.4489923,5.4489923 0 0 1 -5.44899,-5.448993 5.4489923,5.4489923 0 0 1 5.44899,-5.448992 5.4489923,5.4489923 0 0 1 5.449,5.448992 z"
     id="circle1113" />
  <path
     style="opacity:1;fill:#000000;fill-opacity:1;stroke:#000000;stroke-width:1.39153647;stroke-miterlimit:4;stroke-dasharray:none;stroke-dashoffset:0;stroke-opacity:1"
     d="m 321.54177,94.720657 a 5.4489923,5.4489923 0 0 1 -5.449,5.448993 5.4489923,5.4489923 0 0 1 -5.44899,-5.448993 5.4489923,5.4489923 0 0 1 5.44899,-5.448992 5.4489923,5.4489923 0 0 1 5.449,5.448992 z"
     id="circle1115" />
  <path
     style="opacity:1;fill:#000000;fill-opacity:1;stroke:#000000;stroke-width:1.39153647;stroke-miterlimit:4;stroke-dasharray:none;stroke-dashoffset:0;stroke-opacity:1"
     d="m 321.54177,114.72066 a 5.4489923,5.4489923 0 0 1 -5.449,5.44899 5.4489923,5.4489923 0 0 1 -5.44899,-5.44899 5.4489923,5.4489923 0 0 1 5.44899,-5.44899 5.4489923,5.4489923 0 0 1 5.449,5.44899 z"
     id="circle1117" />
  <path
     style="opacity:1;fill:#ffffff;fill-opacity:1;stroke:#000000;stroke-width:2.5;stroke-miterlimit:4;stroke-dasharray:none;stroke-dashoffset:0;stroke-opacity:1"
     d="m 333.27704,119.28101 a 9.789525,9.789525 0 0 1 -9.78952,9.78953 9.789525,9.789525 0 0 1 -9.78953,-9.78953 9.789525,9.789525 0 0 1 9.78953,-9.78952 9.789525,9.789525 0 0 1 9.78952,9.78952 z"
     id="circle1061" />
  <g
     aria-label="◀"
     style="font-style:normal;font-variant:normal;font-weight:normal;font-stretch:normal;font-size:53.33333206px;line-height:1.25;font-family:'Gill Sans Nova';-inkscape-font-specification:'Gill Sans Nova';text-align:start;letter-spacing:0px;word-spacing:0px;text-anchor:start;fill:#000000;fill-opacity:1;stroke:none"
     id="text1121">
    <path
       d="M 193.05733,26.15068 V 56.984013 L 162.224,41.567346 Z"
       style=""
       id="path1141" />
  </g>
  <path
     style="opacity:1;fill:#ffffff;fill-opacity:1;stroke:#000000;stroke-width:2.5;stroke-miterlimit:4;stroke-dasharray:none;stroke-dashoffset:0;stroke-opacity:1"
     d="m 133.87707,55.615417 a 9.789525,9.789525 0 0 1 -9.78952,9.789526 9.789525,9.789525 0 0 1 -9.78953,-9.789526 9.789525,9.789525 0 0 1 9.78953,-9.789525 9.789525,9.789525 0 0 1 9.78952,9.789525 z"
     id="circle1123" />
  <g
     aria-label="✗"
     transform="scale(-1,1)"
     style="font-style:normal;font-variant:normal;font-weight:normal;font-stretch:normal;font-size:53.33333206px;line-height:1.25;font-family:'Gill Sans Nova';-inkscape-font-specification:'Gill Sans Nova';text-align:start;letter-spacing:0px;word-spacing:0px;text-anchor:start;fill:#000000;fill-opacity:1;stroke:none"
     id="text1127">
    <path
       d="m -127.31623,85.126092 q 0.41667,0.208333 0.41667,0.833333 0,0.625 -0.20834,0.833333 -4.375,5.416667 -10.20833,13.333332 3.95833,7.91667 6.04167,12.08333 -0.20834,0.41667 -0.83334,0.625 v 0.41667 q -0.20833,0.41667 -1.04166,0.83333 0.625,1.04167 0,1.25 -0.625,0.41667 -0.83334,0.625 -0.83333,0.41667 -1.66666,-0.625 -3.125,-4.16666 -6.04167,-9.375 -5.41667,8.125 -9.58333,15 -1.04167,1.66667 -1.45834,1.875 -0.625,0.41667 -1.875,0.20834 -1.04166,0.20833 -1.25,-0.41667 -0.20833,-0.41667 -0.625,-1.25 -0.41666,-0.41667 -0.41666,-1.04167 0.20833,-0.625 0.41666,-1.45833 l -0.625,-1.04167 q 2.5,-4.79166 12.5,-17.70833 -2.91666,-6.041665 -5,-12.291665 0,-0.625 1.04167,-1.458333 0.625,-0.625 1.04167,-0.208334 0.20833,0.416667 0.83333,0.208334 0.625,-0.208334 0.83333,-0.625 0.20834,-0.208334 0.625,-0.208334 0.625,0.208334 0.83334,0.625 1.04166,2.5 4.16666,8.333334 4.16667,-4.791667 8.33334,-10 0.20833,-0.416667 0.625,-0.416667 0.625,0 1.25,0.625 0.625,0.625 0.83333,0.208333 0.41667,-0.208333 0.625,-0.416666 0.41667,-0.416667 0.41667,-0.208333 0.20833,0.416666 0.83333,0.833333 z"
       style=""
       id="path1137" />
  </g>
  <g
     aria-label="✓"
     transform="scale(-1,1)"
     style="font-style:normal;font-variant:normal;font-weight:normal;font-stretch:normal;font-size:53.33333206px;line-height:1.25;font-family:'Gill Sans Nova';-inkscape-font-specification:'Gill Sans Nova';text-align:start;letter-spacing:0px;word-spacing:0px;text-anchor:start;fill:#000000;fill-opacity:1;stroke:none"
     id="text1131">
    <path
       d="m -232.2329,111.08442 q 0,-0.83333 -0.20833,-1.45833 0,-1.875 2.5,-3.33333 1.66667,-0.83334 2.5,-0.83334 1.04167,0.20834 1.45833,1.25 1.25,2.91667 1.66667,3.95834 0.41667,0.83333 0.83333,0.83333 0.41667,0 0.83334,-0.625 7.08333,-12.499998 12.70833,-19.374998 4.375,-5.208333 5.41667,-6.041667 3.33333,-2.5 7.91666,-2.708333 l 0.20834,1.041667 q -3.54167,3.541666 -12.29167,15.833333 -8.54167,12.291668 -12.29167,19.374998 -0.83333,1.875 -2.08333,2.29167 -0.625,0.625 -2.70833,0.41666 -1.45834,0.20834 -2.08334,-0.41666 -0.625,-0.41667 -1.25,-1.66667 -2.08333,-5 -3.125,-8.54167 z"
       style=""
       id="path1133" />
  </g>
</svg>
